{
  "accessors": [
    {
      "bufferView": 2,
      "componentType": 5126,
      "count": 9228,
      "max": [
        6.6195230484008789,
        6.5615873336791992,
        6.7644615173339844
      ],
      "min": [
        -6.6167035102844238,
        -6.9008402824401855,
        -6.7644615173339844
      ],
      "type": "VEC3"
    },
    {
      "bufferView": 0,
      "componentType": 5125,
      "count": 18180,
      "max": [
        9227
      ],
      "min": [
        0
      ],
      "type": "SCALAR"
    },
    {
      "bufferView": 2,
      "byteOffset": 110736,
      "componentType": 5126,
      "count": 45127,
      "max": [
        6.9342226982116699,
        4.2256054878234863,
        6.9322710037231445
      ],
      "min": [
        -6.9303073883056641,
        -7.5037755966186523,
        -6.9322710037231445
      ],
      "type": "VEC3"
    },
    {
      "bufferView": 0,
      "byteOffset": 72720,
      "componentType": 5125,
      "count": 88938,
      "max": [
        45126
      ],
      "min": [
        0
      ],
      "type": "SCALAR"
    },
    {
      "bufferView": 2,
      "byteOffset": 652260,
      "componentType": 5126,
      "count": 26383,
      "max": [
        41.664691925048828,
        4.4471430778503418,
        21.553457260131836
      ],
      "min": [
        -12.537796020507812,
        -41.294181823730469,
        -21.553457260131836
      ],
      "type": "VEC3"
    },
    {
      "bufferView": 0,
      "byteOffset": 428472,
      "componentType": 5125,
      "count": 52098,
      "max": [
        26382
      ],
      "min": [
        0
      ],
      "type": "SCALAR"
    },
    {
      "bufferView": 2,
      "byteOffset": 968856,
      "componentType": 5126,
      "count": 25982,
      "max": [
        6.6272163391113281,
        1.1686084270477295,
        6.6182703971862793
      ],
      "min": [
        -6.6176424026489258,
        -1.2180866003036499,
        -6.6182703971862793
      ],
      "type": "VEC3"
    },
    {
      "bufferView": 0,
      "byteOffset": 636864,
      "componentType": 5125,
      "count": 51176,
      "max": [
        25981
      ],
      "min": [
        0
      ],
      "type": "SCALAR"
    },
    {
      "bufferView": 2,
      "byteOffset": 1280640,
      "componentType": 5126,
      "count": 65533,
      "max": [
        1.2892719507217407,
        1.3272198438644409,
        1.2222672700881958
      ],
      "min": [
        -1.299586296081543,
        -0.81758028268814087,
        -1.2893272638320923
      ],
      "type": "VEC3"
    },
    {
      "bufferView": 0,
      "byteOffset": 841568,
      "componentType": 5125,
      "count": 144506,
      "max": [
        65532
      ],
      "min": [
        0
      ],
      "type": "SCALAR"
    },
    {
      "bufferView": 2,
      "byteOffset": 2067036,
      "componentType": 5126,
      "count": 61383,
      "max": [
        1.303592324256897,
        1.2729727029800415,
        1.1797178983688354
      ],
      "min": [
        -1.2767084836959839,
        -1.1296472549438477,
        -1.2891683578491211
      ],
      "type": "VEC3"
    },
    {
      "bufferView": 0,
      "byteOffset": 1419592,
      "componentType": 5125,
      "count": 108654,
      "max": [
        61382
      ],
      "min": [
        0
      ],
      "type": "SCALAR"
    },
    {
      "bufferView": 2,
      "byteOffset": 2803632,
      "componentType": 5126,
      "count": 2143,
      "max": [
        1.0000005960464478,
        1,
        1.000001072883606
      ],
      "min": [
        -1.0000002384185791,
        -1,
        -1
      ],
      "type": "VEC3"
    },
    {
      "bufferView": 2,
      "byteOffset": 2829348,
      "componentType": 5126,
      "count": 2143,
      "max": [
        1,
        1,
        1
      ],
      "min": [
        -1,
        -1,
        -1
      ],
      "type": "VEC3"
    },
    {
      "bufferView": 1,
      "componentType": 5126,
      "count": 2143,
      "max": [
        1.0000011920928955,
        1
      ],
      "min": [
        0,
        0
      ],
      "type": "VEC2"
    },
    {
      "bufferView": 0,
      "byteOffset": 1854208,
      "componentType": 5125,
      "count": 11904,
      "max": [
        2142
      ],
      "min": [
        0
      ],
      "type": "SCALAR"
    }
  ],
  "asset": {
    "extras": {
      "author": "Loïc Norgeot (https://sketchfab.com/norgeotloic)",
      "license": "CC-BY-4.0 (http://creativecommons.org/licenses/by/4.0/)",
      "source": "https://sketchfab.com/3d-models/of-planes-and-satellites-db8f1c8cba3b464993e216acbf4a69b9",
      "title": "Of Planes and Satellites"
    },
    "generator": "Sketchfab-8.27.0",
    "version": "2.0"
  },
  "bufferViews": [
    {
      "buffer": 0,
      "byteLength": 1901824,
      "byteOffset": 0,
      "name": "floatBufferViews",
      "target": 34963
    },
    {
      "buffer": 0,
      "byteLength": 17144,
      "byteOffset": 1901824,
      "byteStride": 8,
      "name": "floatBufferViews",
      "target": 34962
    },
    {
      "buffer": 0,
      "byteLength": 2855064,
      "byteOffset": 1918968,
      "byteStride": 12,
      "name": "floatBufferViews",
      "target": 34962
    }
  ],
  "buffers": [
    {
      "byteLength": 4774032,
      "uri": "scene.bin"
    }
  ],
  "images": [
    {
      "uri": "textures/earth_emissive.png"
    }
  ],
  "materials": [
    {
      "alphaMode": "BLEND",
      "doubleSided": false,
      "emissiveFactor": [
        1,
        0.28863290822882814,
        0
      ],
      "name": "sat_gps_material",
      "pbrMetallicRoughness": {
        "baseColorFactor": [
          1,
          0,
          0,
          0.1602515243902439
        ],
        "metallicFactor": 1,
        "roughnessFactor": 1
      }
    },
    {
      "alphaMode": "BLEND",
      "doubleSided": false,
      "emissiveFactor": [
        0,
        0,
        1
      ],
      "name": "sat_comms_material",
      "pbrMetallicRoughness": {
        "baseColorFactor": [
          0,
          0,
          1,
          0.020007621999999999
        ],
        "metallicFactor": 1,
        "roughnessFactor": 1
      }
    },
    {
      "alphaMode": "BLEND",
      "doubleSided": false,
      "emissiveFactor": [
        0,
        0.44397865853658536,
        0.004269183203380357
      ],
      "name": "sat_tech_material",
      "pbrMetallicRoughness": {
        "baseColorFactor": [
          0,
          1,
          0,
          0.31878810975609756
        ],
        "metallicFactor": 1,
        "roughnessFactor": 1
      }
    },
    {
      "alphaMode": "BLEND",
      "doubleSided": false,
      "emissiveFactor": [
        0,
        0.27391689826985116,
        1
      ],
      "name": "sat_earth_material",
      "pbrMetallicRoughness": {
        "baseColorFactor": [
          1,
          1,
          1,
          0.05659298780487805
        ],
        "metallicFactor": 1,
        "roughnessFactor": 1
      }
    },
    {
      "alphaMode": "BLEND",
      "doubleSided": false,
      "emissiveFactor": [
        1,
        0.28863290822882814,
        0
      ],
      "name": "routes_material",
      "pbrMetallicRoughness": {
        "baseColorFactor": [
          1,
          0,
          0,
          0.068788109799999997
        ],
        "metallicFactor": 1,
        "roughnessFactor": 1
      }
    },
    {
      "doubleSided": true,
      "emissiveFactor": [
        1,
        1,
        1
      ],
      "emissiveTexture": {
        "index": 0,
        "texCoord": 0
      },
      "name": "earth",
      "pbrMetallicRoughness": {
        "baseColorFactor": [
          0,
          0,
          0,
          1
        ],
        "metallicFactor": 0,
        "roughnessFactor": 1
      }
    }
  ],
  "meshes": [
    {
      "primitives": [
        {
          "attributes": {
            "POSITION": 0
          },
          "indices": 1,
          "material": 0,
          "mode": 1
        }
      ]
    },
    {
      "primitives": [
        {
          "attributes": {
            "POSITION": 2
          },
          "indices": 3,
          "material": 1,
          "mode": 1
        }
      ]
    },
    {
      "primitives": [
        {
          "attributes": {
            "POSITION": 4
          },
          "indices": 5,
          "material": 2,
          "mode": 1
        }
      ]
    },
    {
      "primitives": [
        {
          "attributes": {
            "POSITION": 6
          },
          "indices": 7,
          "material": 3,
          "mode": 1
        }
      ]
    },
    {
      "primitives": [
        {
          "attributes": {
            "POSITION": 8
          },
          "indices": 9,
          "material": 4,
          "mode": 1
        }
      ]
    },
    {
      "primitives": [
        {
          "attributes": {
            "POSITION": 10
          },
          "indices": 11,
          "material": 4,
          "mode": 1
        }
      ]
    },
    {
      "primitives": [
        {
          "attributes": {
            "NORMAL": 13,
            "POSITION": 12,
            "TEXCOORD_0": 14
          },
          "indices": 15,
          "material": 5,
          "mode": 4
        }
      ]
    }
  ],
  "nodes": [
    {
      "children": [
        1
      ],
      "name": "RootNode (gltf orientation matrix)",
      "rotation": [
        -0.70710678118654746,
        -0,
        -0,
        0.70710678118654757
      ]
    },
    {
      "children": [
        2
      ],
      "matrix": [
        0.037847351282835007,
        0,
        0,
        0,
        0,
        0.037847351282835007,
        0,
        0,
        0,
        0,
        0.037847351282835007,
        0,
        0,
        0,
        0,
        1
      ],
      "name": "RootNode (model correction matrix)"
    },
    {
      "children": [
        3
      ],
      "name": "root"
    },
    {
      "children": [
        4,
        6,
        8,
        10,
        12,
        15
      ],
      "matrix": [
        1,
        0,
        0,
        0,
        0,
        2.2204460492503131e-16,
        1,
        0,
        0,
        -1,
        2.2204460492503131e-16,
        0,
        0,
        0,
        0,
        1
      ],
      "name": "GLTF_SceneRootNode"
    },
    {
      "children": [
        5
      ],
      "name": "orbits_0"
    },
    {
      "mesh": 0,
      "name": ""
    },
    {
      "children": [
        7
      ],
      "name": "orbits_1"
    },
    {
      "mesh": 1,
      "name": ""
    },
    {
      "children": [
        9
      ],
      "name": "orbits_2"
    },
    {
      "mesh": 2,
      "name": ""
    },
    {
      "children": [
        11
      ],
      "name": "orbits_3"
    },
    {
      "mesh": 3,
      "name": ""
    },
    {
      "children": [
        13,
        14
      ],
      "name": "airlines_4"
    },
    {
      "mesh": 4,
      "name": ""
    },
    {
      "mesh": 5,
      "name": ""
    },
    {
      "children": [
        16
      ],
      "name": "Sphere_5"
    },
    {
      "mesh": 6,
      "name": ""
    }
  ],
  "samplers": [
    {
      "magFilter": 9729,
      "minFilter": 9987,
      "wrapS": 10497,
      "wrapT": 10497
    }
  ],
  "scene": 0,
  "scenes": [
    {
      "name": "OSG_Scene",
      "nodes": [
        0
      ]
    }
  ],
  "textures": [
    {
      "sampler": 0,
      "source": 0
    }
  ]
}

